<svg xmlns="http://www.w3.org/2000/svg" version="1.1" xmlns:xlink="http://www.w3.org/1999/xlink" xmlns:svgjs="http://svgjs.dev/svgjs" width="2000" height="717" viewBox="0 0 2000 717"><g transform="matrix(1,0,0,1,-1.2121212121213603,0.6530331659133708)"><svg viewBox="0 0 396 142" data-background-color="#552233" preserveAspectRatio="xMidYMid meet" height="717" width="2000" xmlns="http://www.w3.org/2000/svg" xmlns:xlink="http://www.w3.org/1999/xlink"><g id="tight-bounds" transform="matrix(1,0,0,1,0.24000000000003752,-0.1293315335560692)"><svg viewBox="0 0 395.5199999999999 142.25866306711217" height="142.25866306711217" width="395.5199999999999"><g><svg viewBox="0 0 397.4975999999999 142.96995638244772" height="142.25866306711217" width="395.5199999999999"><g><rect width="397.4975999999999" height="4.378980934370104" x="0" y="78.57000299532878" fill="#d2d6dc" opacity="1" stroke-width="0" stroke="transparent" fill-opacity="1" class="rect-qz-0" data-fill-palette-color="#fff" rx="1%" id="qz-0" data-palette-color="#d2d6dc"></rect></g><g transform="matrix(1,0,0,1,0.9887999999999693,94.41228480501329)"><svg viewBox="0 0 395.52 48.55767157743442" height="48.55767157743442" width="395.52"><g id="textblocktransform"><svg viewBox="0 0 395.52 48.55767157743442" height="48.55767157743442" width="395.52" id="textblock"><g><svg viewBox="0 0 395.52 48.55767157743442" height="48.55767157743442" width="395.52"><g transform="matrix(1,0,0,1,0,0)"><svg width="395.52" viewBox="1.9 -45.15 417.41 51.25" height="48.55767157743442" data-palette-color="#d2d6dc"><path d="M1.9 0L1.9-42.95 13.55-42.95Q18.25-42.95 20.38-40.65 22.5-38.35 22.5-33.15L22.5-33.15 22.5-31.25Q22.5-25.1 18.1-23.9L18.1-23.9Q20.8-23.2 21.9-20.65 23-18.1 23-13.9L23-13.9Q23-7.05 20.95-3.53 18.9 0 13.55 0L13.55 0 1.9 0ZM10.3-26.8L12.05-26.8Q13.15-26.8 13.55-27.63 13.95-28.45 13.95-29.95L13.95-29.95 13.95-34.25Q13.95-36.35 12.1-36.35L12.1-36.35 10.3-36.35 10.3-26.8ZM11.15-7.55Q14.5-7.55 14.5-10.75L14.5-10.75 14.5-16.1Q14.5-18.05 13.93-19.05 13.35-20.05 11.9-20.05L11.9-20.05 10.3-20.05 10.3-7.6 11.15-7.55ZM36.35 0.4Q25.4 0.4 25.4-10.95L25.4-10.95 25.4-25.65Q25.4-30.85 28.32-33.93 31.25-37 36.35-37L36.35-37Q41.45-37 44.37-33.93 47.3-30.85 47.3-25.65L47.3-25.65 47.3-10.95Q47.3 0.4 36.35 0.4L36.35 0.4ZM36.35-6.35Q37.4-6.35 37.9-7.1 38.4-7.85 38.4-9.15L38.4-9.15 38.4-27.05Q38.4-30.25 36.35-30.25L36.35-30.25Q34.3-30.25 34.3-27.05L34.3-27.05 34.3-9.15Q34.3-7.85 34.8-7.1 35.3-6.35 36.35-6.35L36.35-6.35ZM50.55 0L50.55-36.6 59.3-36.6 59.3-31.95Q59.84-34.2 61.2-35.6 62.55-37 64.8-37L64.8-37Q68.5-37 70.27-34.73 72.05-32.45 72.05-28.25L72.05-28.25 72.05 0 63.45 0 63.45-27.35Q63.45-28.55 62.97-29.4 62.5-30.25 61.5-30.25L61.5-30.25Q60.15-30.25 59.72-29.03 59.3-27.8 59.3-25.75L59.3-25.75 59.3 0 50.55 0ZM85.34 5.35Q81.44 5.35 79.22 4.73 76.99 4.1 74.84 2.35L74.84 2.35 77.84-2.7Q81.04-0.8 84.19-0.8L84.19-0.8Q86.24-0.8 87.29-2.1 88.34-3.4 88.34-5.65L88.34-5.65 88.34-7.65Q87.29-3.9 82.79-3.9L82.79-3.9Q79.04-3.9 77.27-6.45 75.49-9 75.49-13.25L75.49-13.25 75.49-27Q75.49-31.85 77.12-34.43 78.74-37 82.79-37L82.79-37Q85.14-37 86.52-35.83 87.89-34.65 88.34-32.5L88.34-32.5 88.34-36.6 97.29-36.6 97.29-6.2Q97.29-0.05 94.44 2.65 91.59 5.35 85.34 5.35L85.34 5.35ZM86.29-10.5Q88.34-10.5 88.34-14.2L88.34-14.2 88.34-27.25Q88.34-28.35 87.74-29.35 87.14-30.35 86.24-30.35L86.24-30.35Q85.09-30.35 84.69-29.53 84.29-28.7 84.29-27.25L84.29-27.25 84.29-14.2Q84.29-12.55 84.69-11.53 85.09-10.5 86.29-10.5L86.29-10.5ZM107.34 0.4Q103.09 0.4 101.52-2.43 99.94-5.25 99.94-10.5L99.94-10.5Q99.94-14.8 101.07-17.1 102.19-19.4 104.19-20.48 106.19-21.55 110.29-22.85L110.29-22.85 112.69-23.65 112.69-23.75 112.69-27.4Q112.69-28.85 112.12-29.63 111.54-30.4 110.74-30.4L110.74-30.4Q110.04-30.4 109.52-29.75 108.99-29.1 108.99-28L108.99-28 108.99-25.8 100.49-25.8 100.49-27Q100.49-32.4 103.02-34.7 105.54-37 111.24-37L111.24-37Q115.79-37 118.64-34.63 121.49-32.25 121.49-27.9L121.49-27.9 121.49 0 112.79 0 112.79-4.35Q112.14-2.1 110.72-0.85 109.29 0.4 107.34 0.4L107.34 0.4ZM110.79-6.4Q111.79-6.4 112.22-7.23 112.64-8.05 112.64-9.25L112.64-9.25 112.64-19.45Q110.69-18.7 109.77-17.55 108.84-16.4 108.84-14.35L108.84-14.35 108.84-9.65Q108.84-6.4 110.79-6.4L110.79-6.4ZM124.84 0L124.84-36.6 133.59-36.6 133.59-31.95Q134.14-34.2 135.49-35.6 136.84-37 139.09-37L139.09-37Q142.79-37 144.56-34.73 146.34-32.45 146.34-28.25L146.34-28.25 146.34 0 137.74 0 137.74-27.35Q137.74-28.55 137.26-29.4 136.79-30.25 135.79-30.25L135.79-30.25Q134.44-30.25 134.01-29.03 133.59-27.8 133.59-25.75L133.59-25.75 133.59 0 124.84 0ZM158.49-39.05L149.74-39.05 149.74-45.15 158.49-45.15 158.49-39.05ZM158.49 0L149.74 0 149.74-36.6 158.49-36.6 158.49 0ZM169.83 0L162.08 0 162.08-42.95 175.18-42.95 178.78-16.75 182.38-42.95 195.58-42.95 195.58 0 187.73 0 187.73-30.95 182.78 0 175.08 0 169.83-30.95 169.83 0ZM205.88 0.4Q201.63 0.4 200.06-2.43 198.48-5.25 198.48-10.5L198.48-10.5Q198.48-14.8 199.61-17.1 200.73-19.4 202.73-20.48 204.73-21.55 208.83-22.85L208.83-22.85 211.23-23.65 211.23-23.75 211.23-27.4Q211.23-28.85 210.66-29.63 210.08-30.4 209.28-30.4L209.28-30.4Q208.58-30.4 208.06-29.75 207.53-29.1 207.53-28L207.53-28 207.53-25.8 199.03-25.8 199.03-27Q199.03-32.4 201.56-34.7 204.08-37 209.78-37L209.78-37Q214.33-37 217.18-34.63 220.03-32.25 220.03-27.9L220.03-27.9 220.03 0 211.33 0 211.33-4.35Q210.68-2.1 209.26-0.85 207.83 0.4 205.88 0.4L205.88 0.4ZM209.33-6.4Q210.33-6.4 210.76-7.23 211.18-8.05 211.18-9.25L211.18-9.25 211.18-19.45Q209.23-18.7 208.31-17.55 207.38-16.4 207.38-14.35L207.38-14.35 207.38-9.65Q207.38-6.4 209.33-6.4L209.33-6.4ZM236.93 0L227.23 0 222.78-36.6 230.28-36.6 232.73-16.95 234.83-36.6 242.48-36.6 244.98-16.95 247.03-36.6 255.28-36.6 250.58 0 241.83 0 239.23-20.8 236.93 0ZM268.43 0.4Q262.78 0.4 260.33-2.7 257.88-5.8 257.88-11.95L257.88-11.95 257.88-26.65Q257.88-31.7 260.78-34.35 263.68-37 268.88-37L268.88-37Q279.43-37 279.43-26.65L279.43-26.65 279.43-24Q279.43-20 279.33-17.5L279.33-17.5 266.63-17.5 266.63-10.4Q266.63-8.5 267.03-7.43 267.43-6.35 268.73-6.35L268.73-6.35Q269.73-6.35 270.15-6.95 270.58-7.55 270.65-8.33 270.73-9.1 270.73-10.6L270.73-10.6 270.73-14.15 279.43-14.15 279.43-12.05Q279.43-5.65 276.95-2.63 274.48 0.4 268.43 0.4L268.43 0.4ZM266.58-21.85L270.73-21.85 270.73-26.55Q270.73-30.5 268.78-30.5L268.78-30.5Q266.58-30.5 266.58-26.55L266.58-26.55 266.58-21.85ZM290.12 0.4Q286.67 0.4 285.37-1.05 284.07-2.5 284.07-5.7L284.07-5.7 284.07-28.55 281.62-28.55 281.62-35.2 284.07-35.2 284.07-42.95 292.57-42.95 292.57-35.2 295.07-35.2 295.07-28.55 292.57-28.55 292.57-8Q292.57-7.05 292.72-6.6 292.87-6.15 293.52-6.15L293.52-6.15Q294.02-6.15 294.47-6.2 294.92-6.25 295.07-6.25L295.07-6.25 295.07-0.25Q294.32-0.05 292.9 0.18 291.47 0.4 290.12 0.4L290.12 0.4ZM297.82 0L297.82-43.2 306.82-43.2 306.82-33Q308.22-37 312.17-37L312.17-37Q315.87-37 317.77-34.65 319.67-32.3 319.67-28.2L319.67-28.2 319.67 0 310.92 0 310.92-27.65Q310.92-28.85 310.37-29.6 309.82-30.35 308.77-30.35L308.77-30.35Q307.87-30.35 307.35-29.58 306.82-28.8 306.82-27.7L306.82-27.7 306.82 0 297.82 0ZM330.12 0.4Q326.02 0.4 324.49-2.05 322.97-4.5 322.97-9.35L322.97-9.35 322.97-36.6 331.77-36.6 331.77-11.1Q331.77-10.75 331.77-9.22 331.77-7.7 332.24-7.08 332.72-6.45 333.72-6.45L333.72-6.45Q335.07-6.45 335.42-7.58 335.77-8.7 335.77-10.8L335.77-10.8 335.77-11.1 335.82-36.6 344.52-36.6 344.52 0 335.77 0 335.77-3.9Q334.87-1.6 333.67-0.6 332.47 0.4 330.12 0.4L330.12 0.4ZM359.86 0L359.86-42.95 371.21-42.95Q376.36-42.95 378.56-39.63 380.76-36.3 380.76-29.9L380.76-29.9Q380.76-23.5 378.81-20.25 376.86-17 371.81-17L371.81-17 368.31-17 368.31 0 359.86 0ZM368.31-24.75L368.81-24.75Q370.36-24.75 371.09-25.33 371.81-25.9 372.04-26.98 372.26-28.05 372.26-30.05L372.26-30.05Q372.26-32.75 371.66-33.95 371.06-35.15 369.26-35.15L369.26-35.15 368.31-35.15 368.31-24.75ZM390.86 0.4Q387.41 0.4 386.11-1.05 384.81-2.5 384.81-5.7L384.81-5.7 384.81-28.55 382.36-28.55 382.36-35.2 384.81-35.2 384.81-42.95 393.31-42.95 393.31-35.2 395.81-35.2 395.81-28.55 393.31-28.55 393.31-8Q393.31-7.05 393.46-6.6 393.61-6.15 394.26-6.15L394.26-6.15Q394.76-6.15 395.21-6.2 395.66-6.25 395.81-6.25L395.81-6.25 395.81-0.25Q395.06-0.05 393.64 0.18 392.21 0.4 390.86 0.4L390.86 0.4ZM397.86 6.1L397.86 0.55 402.06 0.55Q402.96 0.55 402.96-0.2L402.96-0.2Q402.96-0.55 402.91-0.75L402.91-0.75 397.21-36.6 405.56-36.6 407.21-18.75 408.01-9.65 408.96-18.75 410.91-36.6 419.31-36.6 412.51 1.9Q412.16 4.05 411.08 5.08 410.01 6.1 407.71 6.1L407.71 6.1 397.86 6.1Z" opacity="1" transform="matrix(1,0,0,1,0,0)" fill="#d2d6dc" class="wordmark-text-0" data-fill-palette-color="primary" id="text-0"></path></svg></g></svg></g></svg></g></svg></g><g transform="matrix(1,0,0,1,148.51405110894734,0)"><svg viewBox="0 0 100.46949778210524 67.10670212001438" height="67.10670212001438" width="100.46949778210524"><g><svg xmlns="http://www.w3.org/2000/svg" xmlns:xlink="http://www.w3.org/1999/xlink" version="1.1" x="0" y="0" viewBox="5.404 19.587000000000003 90.159 60.22" enable-background="new 0 0 100 100" xml:space="preserve" height="67.10670212001438" width="100.46949778210524" class="icon-icon-0" data-fill-palette-color="accent" id="icon-0"><path d="M75.146 51.505c-1.213-1.718-3.538 0.404-4.043 0.708-0.506 0.304-0.202 0.102-2.325-0.505-2.122-0.607-3.639 0.809-4.145 1.819-0.504 1.01-3.436 6.974-3.941 7.883-0.506 0.91-1.718 0.305-1.718 0.305s-2.072-1.214-2.831-1.517c-0.758-0.304-1.313 0.354-1.313 0.354l-2.476 2.628c0 0-9.603-4.473-10.664-5.055-1.061-0.58-3.487-6.67-4.194-7.934s-0.556-2.224-0.556-2.224-0.152-2.628-0.203-7.379c-0.05-4.75-2.072-6.822-2.476-7.479-0.404-0.657-0.051-1.212-0.051-1.212l0.486-1.054c2.798-0.337 4.967-2.718 4.967-5.607 0-3.12-2.53-5.649-5.65-5.649-3.121 0-5.65 2.53-5.65 5.649 0 1.128 0.332 2.178 0.901 3.06-0.033 0.288-0.079 0.731-0.108 1.226-0.05 0.859-1.112 1.112-1.112 1.112s-2.425-0.051-3.032-0.051c-0.607 0-1.213 0.253-1.213 0.253s-9.552 4.801-10.613 5.307c-1.061 0.505-0.96 1.313-0.96 1.313l-0.708 8.288c0 0-0.455 0.354-0.708 0.506-0.252 0.151-0.252 0.455-0.252 0.455s0 0.96 0 1.314 0.556 0.556 0.556 0.556 1.011 0.455 1.465 0.707c0.455 0.253 0.606 0 0.606 0s1.718-0.455 2.072-0.657c0.354-0.202 0.657-0.202 0.657-0.202l1.061 0.556c0 0 0.202 9.905 0.202 11.067 0 1.163-0.505 1.769-0.505 1.769s-7.177 9.754-7.935 10.814c-0.758 1.062 0.167 1.697 0.167 1.697l1.249 0.83c0 0 0.935 0.506 0.935 1.087s-0.783 0.784-0.783 0.784H5.404v2.678l90.159 0.102L75.146 51.505zM15.713 45.845c-0.151-0.303 0.455-5.862 0.455-5.862l5.104-2.527c0 0 0.556-0.404 0.506 0.329-0.051 0.733-0.91 3.613-0.91 3.613l-2.779 5.61C18.089 47.007 15.865 46.148 15.713 45.845zM18.24 77.092l-1.415-2.693c0 0-0.303-0.707-0.303-1.162s0.354-1.162 0.354-1.162l5.862-8.49c0 0 0.404-0.708 0.506-1.516 0.101-0.809 0.707-6.217 0.707-6.217s0.102-0.102 0.304 0.102c0.202 0.201 4.801 6.316 4.801 6.316s0.354 0.758 0.354 1.213 0.151 13.545 0.151 13.545L18.24 77.092zM29.207 50.141c0-1.112-0.101-2.274 0.505-3.083 0.607-0.809 2.375-2.78 2.375-2.78l0.152 4.195c0 0 0 1.162 0.404 1.971 0.404 0.809 2.123 4.195 2.123 4.195l-4.195-1.869C30.571 52.77 29.207 51.253 29.207 50.141zM49.271 70.861c0 0-0.657 0.252-1.062 0.404-0.404 0.151-1.364 0.354-1.718 1.516-0.354 1.162-0.557 1.92-1.416 2.072-0.859 0.151-1.011 0.354-1.566 0.909-0.556 0.557-0.67 1.163-1.175 1.265-0.505 0.101-3.879 0.064-3.879 0.064l-2.476-3.855c0 0-0.253-0.607-0.253-1.162 0-0.557-0.253-10.311-0.253-10.311s-0.151-0.808-0.505-1.414c-0.354-0.606-2.173-3.689-2.173-3.689l17.767 8.656-0.938 1.147c0 0-0.809 0.961 0.101 1.365S52.1 68.84 52.1 68.84l0.051 0.404L49.271 70.861z" fill="#ffffff" data-fill-palette-color="accent"></path></svg></g></svg></g><g></g></svg></g><defs></defs></svg><rect width="395.5199999999999" height="142.25866306711217" fill="none" stroke="none" visibility="hidden"></rect></g></svg></g></svg>